<svg xmlns="http://www.w3.org/2000/svg" version="1.1" xmlns:xlink="http://www.w3.org/1999/xlink" xmlns:svgjs="http://svgjs.dev/svgjs" viewBox="0 0 21.753585626648487 5.220532109498913"><g transform="matrix(1,0,0,1,0.8423725237137312,0.9239970857851818)"><g><path d=" M 0.0555 0.8025 Q 0.0585 0.867 0.08925 0.9195000000000001 Q 0.12 0.9720000000000001 0.17325000000000002 1.00875 Q 0.2265 1.0455 0.2985 1.06575 Q 0.3705 1.086 0.456 1.086 Q 0.543 1.086 0.61275 1.0650000000000002 Q 0.6825 1.044 0.732 1.0050000000000001 Q 0.7815 0.9660000000000001 0.8085 0.9105000000000001 Q 0.8355 0.8550000000000001 0.8355 0.7875000000000001 Q 0.8355 0.6945000000000001 0.789 0.6352500000000001 Q 0.7425 0.5760000000000001 0.67275 0.53625 Q 0.603 0.49650000000000005 0.52125 0.46950000000000003 Q 0.4395 0.4425 0.36975 0.4125000000000001 Q 0.3 0.38250000000000006 0.2535 0.3435 Q 0.20700000000000002 0.3045 0.20700000000000002 0.24 Q 0.20700000000000002 0.20400000000000007 0.22275 0.1725 Q 0.23850000000000002 0.14100000000000001 0.26925 0.11775000000000002 Q 0.3 0.09450000000000003 0.34500000000000003 0.08025000000000004 Q 0.39 0.06600000000000006 0.4485 0.06600000000000006 Q 0.546 0.06600000000000006 0.61425 0.10725000000000007 Q 0.6825 0.14850000000000008 0.6945 0.237 L 0.7965 0.237 Q 0.7875 0.1815 0.756 0.1372500000000001 Q 0.7245 0.09300000000000008 0.6765 0.06225000000000014 Q 0.6285000000000001 0.031500000000000083 0.56775 0.01574999999999993 Q 0.507 0 0.441 0 Q 0.372 0 0.30975 0.018000000000000016 Q 0.2475 0.03600000000000003 0.20025 0.07050000000000001 Q 0.153 0.1050000000000001 0.12525 0.15750000000000008 Q 0.0975 0.21000000000000008 0.0975 0.2775000000000001 Q 0.0975 0.366 0.14250000000000002 0.42000000000000004 Q 0.1875 0.4740000000000001 0.25575000000000003 0.51 Q 0.324 0.546 0.4035 0.5715000000000001 Q 0.483 0.597 0.55125 0.6292500000000001 Q 0.6195 0.6615 0.6645 0.7080000000000001 Q 0.7095 0.7545000000000001 0.7095 0.8325 Q 0.7095 0.93 0.63825 0.9750000000000001 Q 0.5670000000000001 1.02 0.4485 1.02 Q 0.354 1.02 0.297 0.9952500000000001 Q 0.24 0.9705 0.21 0.936 Q 0.18 0.9015000000000001 0.1695 0.86475 Q 0.159 0.8280000000000001 0.1575 0.8025 L 0.0555 0.8025 M 1.521 1.068 L 1.521 0.10050000000000003 L 1.923 0.10050000000000003 L 1.923 0.018000000000000016 L 0.9825 0.018000000000000016 L 0.9825 0.10050000000000003 L 1.3845 0.10050000000000003 L 1.3845 1.068 L 1.521 1.068 M 2.1479882812500004 0.018000000000000016 L 2.1479882812500004 1.068 L 2.8259882812500003 1.068 L 2.8259882812500003 0.9855 L 2.2844882812500003 0.9855 L 2.2844882812500003 0.546 L 2.74948828125 0.546 L 2.74948828125 0.4770000000000001 L 2.2844882812500003 0.4770000000000001 L 2.2844882812500003 0.10050000000000003 L 2.8259882812500003 0.10050000000000003 L 2.8259882812500003 0.018000000000000016 L 2.1479882812500004 0.018000000000000016 M 3.0659729003906255 1.068 L 3.0659729003906255 0.018000000000000016 L 3.2024729003906254 0.018000000000000016 L 3.2024729003906254 0.9855 L 3.7439729003906255 0.9855 L 3.7439729003906255 1.068 L 3.0659729003906255 1.068 M 3.8864575195312505 0.018000000000000016 L 3.8864575195312505 0.10050000000000003 L 4.52095751953125 0.10050000000000003 L 3.8489575195312504 1.068 L 4.75795751953125 1.068 L 4.75795751953125 0.9855 L 4.066457519531251 0.9855 L 4.73245751953125 0.018000000000000016 L 3.8864575195312505 0.018000000000000016 M 4.997980957031251 0.018000000000000016 L 4.997980957031251 1.068 L 5.675980957031251 1.068 L 5.675980957031251 0.9855 L 5.134480957031251 0.9855 L 5.134480957031251 0.546 L 5.599480957031251 0.546 L 5.599480957031251 0.4770000000000001 L 5.134480957031251 0.4770000000000001 L 5.134480957031251 0.10050000000000003 L 5.675980957031251 0.10050000000000003 L 5.675980957031251 0.018000000000000016 L 4.997980957031251 0.018000000000000016 M 5.9159655761718755 0.018000000000000016 L 5.9159655761718755 1.068 L 6.052465576171876 1.068 L 6.052465576171876 0.6045 L 6.118465576171876 0.6045 Q 6.160465576171876 0.6045 6.188215576171876 0.6120000000000001 Q 6.215965576171875 0.6195 6.238465576171876 0.6375000000000001 Q 6.260965576171876 0.6555 6.280465576171876 0.684 Q 6.299965576171876 0.7125000000000001 6.326965576171876 0.7545000000000001 L 6.445465576171876 0.93 Q 6.467965576171876 0.9645 6.489715576171876 0.9930000000000001 Q 6.511465576171876 1.0215 6.536965576171876 1.04175 Q 6.562465576171876 1.062 6.594715576171875 1.074 Q 6.626965576171876 1.086 6.671965576171876 1.086 Q 6.704965576171876 1.086 6.725965576171876 1.083 Q 6.746965576171876 1.08 6.767965576171876 1.068 L 6.767965576171876 1.0125 Q 6.7604655761718755 1.014 6.752965576171876 1.01475 Q 6.745465576171876 1.0155 6.7379655761718755 1.0155 Q 6.706465576171876 1.0155 6.682465576171876 1.0065 Q 6.658465576171876 0.9975 6.637465576171875 0.9802500000000001 Q 6.616465576171876 0.9630000000000001 6.5969655761718755 0.93825 Q 6.577465576171876 0.9135000000000001 6.556465576171876 0.8820000000000001 Q 6.493465576171876 0.7905 6.458965576171876 0.7357500000000001 Q 6.424465576171876 0.681 6.404215576171875 0.651 Q 6.383965576171875 0.621 6.371215576171876 0.6075 Q 6.358465576171875 0.5940000000000001 6.340465576171876 0.5850000000000001 L 6.325465576171876 0.5775000000000001 L 6.325465576171876 0.5715000000000001 Q 6.397465576171876 0.5670000000000001 6.449215576171876 0.54 Q 6.500965576171875 0.513 6.533965576171876 0.47250000000000003 Q 6.566965576171876 0.43200000000000005 6.581965576171876 0.38475000000000004 Q 6.5969655761718755 0.3375 6.5969655761718755 0.2925000000000001 Q 6.5969655761718755 0.252 6.581215576171876 0.20400000000000007 Q 6.565465576171876 0.15600000000000003 6.5272155761718755 0.11475000000000002 Q 6.488965576171876 0.07350000000000001 6.422965576171876 0.04574999999999996 Q 6.356965576171875 0.018000000000000016 6.256465576171876 0.018000000000000016 L 5.9159655761718755 0.018000000000000016 M 6.052465576171876 0.08400000000000007 L 6.203965576171876 0.08400000000000007 Q 6.260965576171876 0.08400000000000007 6.306715576171876 0.10050000000000003 Q 6.352465576171876 0.11699999999999999 6.3854655761718755 0.14625 Q 6.418465576171876 0.1755 6.435715576171876 0.21600000000000008 Q 6.452965576171875 0.25650000000000006 6.452965576171875 0.3045 Q 6.452965576171875 0.3450000000000001 6.437215576171876 0.3862500000000001 Q 6.421465576171876 0.4275000000000001 6.389965576171876 0.46125000000000005 Q 6.358465576171875 0.495 6.312715576171875 0.516 Q 6.266965576171875 0.537 6.206965576171876 0.537 L 6.052465576171876 0.537 L 6.052465576171876 0.08400000000000007 M 7.547955322265625 1.068 L 7.547955322265625 0.018000000000000016 L 7.6844553222656256 0.018000000000000016 L 7.6844553222656256 0.9855 L 8.225955322265625 0.9855 L 8.225955322265625 1.068 L 7.547955322265625 1.068 M 8.360939941406249 0.543 Q 8.360939941406249 0.627 8.39318994140625 0.7222500000000001 Q 8.42543994140625 0.8175000000000001 8.49443994140625 0.8985000000000001 Q 8.56343994140625 0.9795 8.66993994140625 1.03275 Q 8.77643994140625 1.086 8.92493994140625 1.086 Q 9.02543994140625 1.086 9.10718994140625 1.06125 Q 9.18893994140625 1.0365 9.25418994140625 0.9945 Q 9.31943994140625 0.9525 9.36743994140625 0.89775 Q 9.41543994140625 0.8430000000000001 9.44618994140625 0.7822500000000001 Q 9.47693994140625 0.7215 9.49268994140625 0.66 Q 9.50843994140625 0.5985 9.50843994140625 0.543 Q 9.50843994140625 0.4590000000000001 9.47393994140625 0.36375 Q 9.439439941406249 0.26850000000000007 9.36743994140625 0.1875 Q 9.29543994140625 0.10650000000000004 9.18518994140625 0.05325000000000002 Q 9.07493994140625 0 8.92493994140625 0 Q 8.77643994140625 0 8.66993994140625 0.05249999999999999 Q 8.56343994140625 0.1050000000000001 8.49443994140625 0.18525000000000003 Q 8.42543994140625 0.26550000000000007 8.39318994140625 0.36150000000000004 Q 8.360939941406249 0.4575 8.360939941406249 0.543 M 8.50793994140625 0.543 Q 8.50793994140625 0.43800000000000006 8.54018994140625 0.35025000000000006 Q 8.57243994140625 0.26250000000000007 8.62868994140625 0.1995 Q 8.684939941406249 0.13650000000000007 8.76143994140625 0.10125000000000006 Q 8.83793994140625 0.06600000000000006 8.92793994140625 0.06600000000000006 Q 9.016439941406249 0.06600000000000006 9.09518994140625 0.10125000000000006 Q 9.17393994140625 0.13650000000000007 9.23318994140625 0.1995 Q 9.29243994140625 0.26250000000000007 9.32693994140625 0.35025000000000006 Q 9.36143994140625 0.43800000000000006 9.36143994140625 0.543 Q 9.36143994140625 0.6480000000000001 9.32693994140625 0.7357500000000001 Q 9.29243994140625 0.8235000000000001 9.23318994140625 0.8865000000000001 Q 9.17393994140625 0.9495 9.09518994140625 0.98475 Q 9.016439941406249 1.02 8.92793994140625 1.02 Q 8.83793994140625 1.02 8.76143994140625 0.98475 Q 8.684939941406249 0.9495 8.62868994140625 0.8865000000000001 Q 8.57243994140625 0.8235000000000001 8.54018994140625 0.7357500000000001 Q 8.50793994140625 0.6480000000000001 8.50793994140625 0.543 M 10.73392529296875 0.6000000000000001 L 10.43692529296875 0.6000000000000001 L 10.43692529296875 0.6615 L 10.604925292968751 0.6615 L 10.604925292968751 0.933 Q 10.53742529296875 0.9765 10.46692529296875 0.9975 Q 10.39642529296875 1.0185 10.30642529296875 1.0185 Q 10.18792529296875 1.0185 10.09942529296875 0.9825 Q 10.01092529296875 0.9465000000000001 9.95242529296875 0.88275 Q 9.893925292968751 0.8190000000000001 9.86467529296875 0.7312500000000001 Q 9.83542529296875 0.6435000000000001 9.83542529296875 0.5385000000000001 Q 9.83542529296875 0.43500000000000005 9.86317529296875 0.3480000000000001 Q 9.89092529296875 0.261 9.946425292968751 0.19800000000000006 Q 10.00192529296875 0.135 10.082175292968751 0.10050000000000003 Q 10.16242529296875 0.06600000000000006 10.268925292968751 0.06600000000000006 Q 10.33942529296875 0.06600000000000006 10.40092529296875 0.08100000000000007 Q 10.462425292968751 0.09600000000000009 10.510425292968751 0.12 Q 10.55842529296875 0.14400000000000002 10.58917529296875 0.17475000000000007 Q 10.61992529296875 0.20550000000000002 10.62892529296875 0.237 L 10.73692529296875 0.237 Q 10.72342529296875 0.20400000000000007 10.691175292968751 0.16275000000000006 Q 10.65892529296875 0.12150000000000005 10.603425292968751 0.08550000000000002 Q 10.54792529296875 0.0495000000000001 10.46617529296875 0.02475000000000005 Q 10.38442529296875 0 10.273425292968751 0 Q 10.14592529296875 0 10.038675292968751 0.03600000000000003 Q 9.93142529296875 0.07200000000000006 9.853425292968751 0.13950000000000007 Q 9.77542529296875 0.20700000000000007 9.73192529296875 0.30525 Q 9.68842529296875 0.4035000000000001 9.68842529296875 0.528 Q 9.68842529296875 0.6345000000000001 9.72217529296875 0.7342500000000001 Q 9.755925292968751 0.8340000000000001 9.82567529296875 0.9127500000000001 Q 9.895425292968751 0.9915 10.00342529296875 1.03875 Q 10.11142529296875 1.086 10.26142529296875 1.086 Q 10.37392529296875 1.086 10.460925292968751 1.06125 Q 10.54792529296875 1.0365 10.604925292968751 1.0065 L 10.604925292968751 1.068 L 10.73392529296875 1.068 L 10.73392529296875 0.6000000000000001 M 11.078950195312501 0.018000000000000016 L 11.078950195312501 1.068 L 11.215450195312501 1.068 L 11.215450195312501 0.018000000000000016 L 11.078950195312501 0.018000000000000016 M 11.525966308593752 0.8025 Q 11.528966308593752 0.867 11.559716308593751 0.9195000000000001 Q 11.59046630859375 0.9720000000000001 11.643716308593751 1.00875 Q 11.696966308593751 1.0455 11.768966308593752 1.06575 Q 11.840966308593751 1.086 11.926466308593751 1.086 Q 12.01346630859375 1.086 12.083216308593752 1.0650000000000002 Q 12.15296630859375 1.044 12.20246630859375 1.0050000000000001 Q 12.251966308593751 0.9660000000000001 12.278966308593752 0.9105000000000001 Q 12.305966308593751 0.8550000000000001 12.305966308593751 0.7875000000000001 Q 12.305966308593751 0.6945000000000001 12.259466308593751 0.6352500000000001 Q 12.212966308593751 0.5760000000000001 12.143216308593752 0.53625 Q 12.073466308593751 0.49650000000000005 11.991716308593752 0.46950000000000003 Q 11.909966308593752 0.4425 11.840216308593751 0.4125000000000001 Q 11.770466308593752 0.38250000000000006 11.723966308593752 0.3435 Q 11.677466308593752 0.3045 11.677466308593752 0.24 Q 11.677466308593752 0.20400000000000007 11.693216308593751 0.1725 Q 11.708966308593752 0.14100000000000001 11.739716308593751 0.11775000000000002 Q 11.770466308593752 0.09450000000000003 11.815466308593752 0.08025000000000004 Q 11.860466308593752 0.06600000000000006 11.91896630859375 0.06600000000000006 Q 12.01646630859375 0.06600000000000006 12.084716308593752 0.10725000000000007 Q 12.15296630859375 0.14850000000000008 12.164966308593751 0.237 L 12.266966308593751 0.237 Q 12.257966308593751 0.1815 12.226466308593752 0.1372500000000001 Q 12.194966308593752 0.09300000000000008 12.146966308593752 0.06225000000000014 Q 12.098966308593752 0.031500000000000083 12.038216308593752 0.01574999999999993 Q 11.977466308593751 0 11.911466308593752 0 Q 11.842466308593751 0 11.78021630859375 0.018000000000000016 Q 11.717966308593752 0.03600000000000003 11.670716308593752 0.07050000000000001 Q 11.623466308593752 0.1050000000000001 11.595716308593751 0.15750000000000008 Q 11.567966308593752 0.21000000000000008 11.567966308593752 0.2775000000000001 Q 11.567966308593752 0.366 11.612966308593752 0.42000000000000004 Q 11.657966308593751 0.4740000000000001 11.726216308593752 0.51 Q 11.794466308593751 0.546 11.87396630859375 0.5715000000000001 Q 11.953466308593752 0.597 12.021716308593751 0.6292500000000001 Q 12.089966308593752 0.6615 12.134966308593752 0.7080000000000001 Q 12.179966308593752 0.7545000000000001 12.179966308593752 0.8325 Q 12.179966308593752 0.93 12.10871630859375 0.9750000000000001 Q 12.037466308593752 1.02 11.91896630859375 1.02 Q 11.82446630859375 1.02 11.767466308593752 0.9952500000000001 Q 11.710466308593752 0.9705 11.680466308593752 0.936 Q 11.650466308593751 0.9015000000000001 11.63996630859375 0.86475 Q 11.629466308593752 0.8280000000000001 11.627966308593752 0.8025 L 11.525966308593752 0.8025 M 12.991466308593752 1.068 L 12.991466308593752 0.10050000000000003 L 13.393466308593752 0.10050000000000003 L 13.393466308593752 0.018000000000000016 L 12.452966308593751 0.018000000000000016 L 12.452966308593751 0.10050000000000003 L 12.854966308593752 0.10050000000000003 L 12.854966308593752 1.068 L 12.991466308593752 1.068 M 13.678454589843753 0.018000000000000016 L 13.678454589843753 1.068 L 13.814954589843753 1.068 L 13.814954589843753 0.018000000000000016 L 13.678454589843753 0.018000000000000016 M 15.133470703125003 0.8745 Q 14.980470703125004 1.0185 14.770470703125003 1.0185 Q 14.653470703125004 1.0185 14.563470703125002 0.9780000000000001 Q 14.473470703125003 0.9375 14.413470703125004 0.8700000000000001 Q 14.353470703125003 0.8025 14.322720703125004 0.7140000000000001 Q 14.291970703125003 0.6255000000000001 14.291970703125003 0.5295000000000001 Q 14.291970703125003 0.4275000000000001 14.324220703125004 0.34275 Q 14.356470703125003 0.258 14.414970703125004 0.1965 Q 14.473470703125003 0.135 14.553720703125004 0.10050000000000003 Q 14.633970703125003 0.06600000000000006 14.728470703125003 0.06600000000000006 Q 14.792970703125004 0.06600000000000006 14.846220703125002 0.08100000000000007 Q 14.899470703125003 0.09600000000000009 14.940720703125002 0.12 Q 14.981970703125004 0.14400000000000002 15.008220703125003 0.17475000000000007 Q 15.034470703125002 0.20550000000000002 15.044970703125003 0.237 L 15.155970703125003 0.237 Q 15.133470703125003 0.18600000000000005 15.098220703125003 0.14250000000000007 Q 15.062970703125004 0.09900000000000009 15.010470703125003 0.06750000000000012 Q 14.957970703125003 0.03600000000000003 14.887470703125004 0.018000000000000016 Q 14.816970703125003 0 14.726970703125003 0 Q 14.596470703125004 0 14.489220703125003 0.03750000000000009 Q 14.381970703125003 0.07500000000000007 14.305470703125003 0.14475000000000005 Q 14.228970703125004 0.21450000000000002 14.186970703125004 0.3127500000000001 Q 14.144970703125002 0.41100000000000003 14.144970703125002 0.5325000000000001 Q 14.144970703125002 0.6375000000000001 14.178720703125004 0.7372500000000001 Q 14.212470703125003 0.8370000000000001 14.282970703125002 0.91425 Q 14.353470703125003 0.9915 14.462970703125004 1.03875 Q 14.572470703125003 1.086 14.723970703125003 1.086 Q 14.819970703125003 1.086 14.895720703125003 1.068 Q 14.971470703125004 1.05 15.027720703125004 1.0237500000000002 Q 15.083970703125003 0.9975 15.121470703125004 0.9675 Q 15.158970703125004 0.9375 15.178470703125003 0.915 L 15.133470703125003 0.8745 M 15.278928955078129 0.8025 Q 15.28192895507813 0.867 15.312678955078129 0.9195000000000001 Q 15.343428955078128 0.9720000000000001 15.396678955078128 1.00875 Q 15.449928955078128 1.0455 15.52192895507813 1.06575 Q 15.593928955078129 1.086 15.679428955078128 1.086 Q 15.766428955078128 1.086 15.836178955078129 1.0650000000000002 Q 15.905928955078128 1.044 15.955428955078128 1.0050000000000001 Q 16.004928955078128 0.9660000000000001 16.03192895507813 0.9105000000000001 Q 16.05892895507813 0.8550000000000001 16.05892895507813 0.7875000000000001 Q 16.05892895507813 0.6945000000000001 16.01242895507813 0.6352500000000001 Q 15.965928955078128 0.5760000000000001 15.89617895507813 0.53625 Q 15.826428955078129 0.49650000000000005 15.744678955078129 0.46950000000000003 Q 15.66292895507813 0.4425 15.593178955078129 0.4125000000000001 Q 15.52342895507813 0.38250000000000006 15.47692895507813 0.3435 Q 15.43042895507813 0.3045 15.43042895507813 0.24 Q 15.43042895507813 0.20400000000000007 15.446178955078128 0.1725 Q 15.461928955078129 0.14100000000000001 15.492678955078128 0.11775000000000002 Q 15.52342895507813 0.09450000000000003 15.56842895507813 0.08025000000000004 Q 15.61342895507813 0.06600000000000006 15.671928955078128 0.06600000000000006 Q 15.769428955078128 0.06600000000000006 15.837678955078129 0.10725000000000007 Q 15.905928955078128 0.14850000000000008 15.917928955078128 0.237 L 16.01992895507813 0.237 Q 16.01092895507813 0.1815 15.979428955078129 0.1372500000000001 Q 15.94792895507813 0.09300000000000008 15.89992895507813 0.06225000000000014 Q 15.85192895507813 0.031500000000000083 15.791178955078129 0.01574999999999993 Q 15.730428955078128 0 15.66442895507813 0 Q 15.595428955078129 0 15.533178955078128 0.018000000000000016 Q 15.47092895507813 0.03600000000000003 15.42367895507813 0.07050000000000001 Q 15.37642895507813 0.1050000000000001 15.348678955078128 0.15750000000000008 Q 15.320928955078129 0.21000000000000008 15.320928955078129 0.2775000000000001 Q 15.320928955078129 0.366 15.365928955078129 0.42000000000000004 Q 15.410928955078129 0.4740000000000001 15.47917895507813 0.51 Q 15.547428955078129 0.546 15.626928955078128 0.5715000000000001 Q 15.70642895507813 0.597 15.774678955078128 0.6292500000000001 Q 15.84292895507813 0.6615 15.887928955078129 0.7080000000000001 Q 15.932928955078129 0.7545000000000001 15.932928955078129 0.8325 Q 15.932928955078129 0.93 15.861678955078128 0.9750000000000001 Q 15.790428955078129 1.02 15.671928955078128 1.02 Q 15.577428955078128 1.02 15.52042895507813 0.9952500000000001 Q 15.463428955078129 0.9705 15.43342895507813 0.936 Q 15.403428955078128 0.9015000000000001 15.392928955078128 0.86475 Q 15.38242895507813 0.8280000000000001 15.38092895507813 0.8025 L 15.278928955078129 0.8025 M 8.761415039062502 2.1449999999999996 L 8.905415039062502 2.4539999999999997 L 9.050915039062502 2.4539999999999997 L 8.561915039062502 1.4039999999999997 L 8.486915039062502 1.4039999999999997 L 8.042915039062501 2.4539999999999997 L 8.111915039062502 2.4539999999999997 L 8.243915039062502 2.1449999999999996 L 8.761415039062502 2.1449999999999996 M 8.7299150390625 2.0774999999999997 L 8.272415039062501 2.0774999999999997 L 8.488415039062502 1.5719999999999996 L 8.4944150390625 1.5719999999999996 L 8.7299150390625 2.0774999999999997 M 9.305906982421877 2.4539999999999997 L 9.305906982421877 1.4039999999999997 L 9.650906982421876 1.4039999999999997 Q 9.775406982421877 1.4039999999999997 9.878906982421878 1.4437499999999996 Q 9.982406982421876 1.4834999999999998 10.056656982421877 1.5532499999999998 Q 10.130906982421877 1.6229999999999998 10.172156982421876 1.7189999999999999 Q 10.213406982421876 1.8149999999999997 10.213406982421876 1.9259999999999997 Q 10.213406982421876 2.0414999999999996 10.170656982421876 2.1382499999999998 Q 10.127906982421877 2.235 10.053656982421877 2.3055 Q 9.979406982421878 2.376 9.880406982421878 2.4149999999999996 Q 9.781406982421878 2.4539999999999997 9.668906982421877 2.4539999999999997 L 9.305906982421877 2.4539999999999997 M 9.442406982421877 2.388 L 9.607406982421876 2.388 Q 9.730406982421878 2.388 9.816656982421877 2.3467499999999997 Q 9.902906982421877 2.3055 9.958406982421877 2.2394999999999996 Q 10.013906982421878 2.1734999999999998 10.039406982421877 2.0917499999999998 Q 10.064906982421878 2.01 10.064906982421878 1.9289999999999998 Q 10.064906982421878 1.8389999999999997 10.034906982421877 1.7557499999999997 Q 10.004906982421877 1.6724999999999999 9.947156982421877 1.6087499999999997 Q 9.889406982421876 1.5449999999999997 9.803906982421877 1.5074999999999998 Q 9.718406982421877 1.4699999999999998 9.607406982421876 1.4699999999999998 L 9.442406982421877 1.4699999999999998 L 9.442406982421877 2.388 M 10.318428955078128 1.4039999999999997 L 10.757928955078128 2.4539999999999997 L 10.847928955078128 2.4539999999999997 L 11.273928955078128 1.4039999999999997 L 11.195928955078127 1.4039999999999997 L 10.846428955078128 2.268 L 10.840428955078128 2.268 L 10.480428955078128 1.4039999999999997 L 10.318428955078128 1.4039999999999997 M 11.573961181640628 1.4039999999999997 L 11.573961181640628 2.4539999999999997 L 11.710461181640628 2.4539999999999997 L 11.710461181640628 1.4039999999999997 L 11.573961181640628 1.4039999999999997 M 12.02097729492188 2.1885 Q 12.02397729492188 2.2529999999999997 12.054727294921879 2.3055 Q 12.085477294921878 2.3579999999999997 12.138727294921878 2.3947499999999997 Q 12.191977294921879 2.4314999999999998 12.26397729492188 2.4517499999999997 Q 12.335977294921879 2.4719999999999995 12.421477294921878 2.4719999999999995 Q 12.508477294921878 2.4719999999999995 12.578227294921879 2.4509999999999996 Q 12.647977294921878 2.4299999999999997 12.697477294921878 2.3909999999999996 Q 12.746977294921878 2.352 12.77397729492188 2.2964999999999995 Q 12.800977294921879 2.2409999999999997 12.800977294921879 2.1734999999999998 Q 12.800977294921879 2.0805 12.754477294921879 2.0212499999999998 Q 12.707977294921879 1.9619999999999997 12.63822729492188 1.9222499999999996 Q 12.568477294921879 1.8824999999999998 12.486727294921879 1.8554999999999997 Q 12.40497729492188 1.8284999999999996 12.335227294921879 1.7984999999999998 Q 12.26547729492188 1.7684999999999997 12.21897729492188 1.7294999999999998 Q 12.17247729492188 1.6904999999999997 12.17247729492188 1.6259999999999997 Q 12.17247729492188 1.5899999999999999 12.188227294921878 1.5584999999999996 Q 12.203977294921879 1.5269999999999997 12.234727294921878 1.5037499999999997 Q 12.26547729492188 1.4804999999999997 12.31047729492188 1.4662499999999996 Q 12.35547729492188 1.4519999999999997 12.413977294921878 1.4519999999999997 Q 12.511477294921878 1.4519999999999997 12.579727294921879 1.4932499999999997 Q 12.647977294921878 1.5344999999999998 12.659977294921879 1.6229999999999998 L 12.761977294921879 1.6229999999999998 Q 12.752977294921878 1.5674999999999997 12.721477294921879 1.5232499999999998 Q 12.68997729492188 1.4789999999999996 12.64197729492188 1.4482499999999998 Q 12.59397729492188 1.4174999999999998 12.533227294921879 1.4017499999999996 Q 12.472477294921879 1.3859999999999997 12.40647729492188 1.3859999999999997 Q 12.337477294921879 1.3859999999999997 12.275227294921878 1.4039999999999997 Q 12.21297729492188 1.4219999999999997 12.16572729492188 1.4564999999999997 Q 12.11847729492188 1.4909999999999997 12.090727294921878 1.5434999999999999 Q 12.062977294921879 1.5959999999999996 12.062977294921879 1.6634999999999998 Q 12.062977294921879 1.7519999999999998 12.107977294921879 1.8059999999999996 Q 12.152977294921879 1.8599999999999999 12.22122729492188 1.8959999999999997 Q 12.289477294921879 1.9319999999999997 12.368977294921878 1.9574999999999998 Q 12.44847729492188 1.9829999999999997 12.516727294921878 2.0152499999999995 Q 12.58497729492188 2.0475 12.62997729492188 2.094 Q 12.674977294921879 2.1405 12.674977294921879 2.2184999999999997 Q 12.674977294921879 2.316 12.603727294921878 2.3609999999999998 Q 12.532477294921879 2.4059999999999997 12.413977294921878 2.4059999999999997 Q 12.319477294921878 2.4059999999999997 12.26247729492188 2.3812499999999996 Q 12.205477294921879 2.3564999999999996 12.17547729492188 2.3219999999999996 Q 12.145477294921879 2.2874999999999996 12.134977294921878 2.2507499999999996 Q 12.12447729492188 2.2139999999999995 12.12297729492188 2.1885 L 12.02097729492188 2.1885 M 12.992977294921879 1.9289999999999998 Q 12.992977294921879 2.013 13.02522729492188 2.10825 Q 13.05747729492188 2.2034999999999996 13.12647729492188 2.2844999999999995 Q 13.19547729492188 2.3655 13.30197729492188 2.4187499999999997 Q 13.40847729492188 2.4719999999999995 13.556977294921879 2.4719999999999995 Q 13.657477294921879 2.4719999999999995 13.739227294921879 2.44725 Q 13.82097729492188 2.4225 13.886227294921879 2.3804999999999996 Q 13.95147729492188 2.3385 13.99947729492188 2.2837499999999995 Q 14.04747729492188 2.2289999999999996 14.078227294921879 2.1682499999999996 Q 14.10897729492188 2.1075 14.124727294921879 2.046 Q 14.14047729492188 1.9844999999999997 14.14047729492188 1.9289999999999998 Q 14.14047729492188 1.8449999999999998 14.10597729492188 1.7497499999999997 Q 14.071477294921879 1.6544999999999996 13.99947729492188 1.5734999999999997 Q 13.927477294921879 1.4924999999999997 13.81722729492188 1.4392499999999997 Q 13.706977294921879 1.3859999999999997 13.556977294921879 1.3859999999999997 Q 13.40847729492188 1.3859999999999997 13.30197729492188 1.4384999999999997 Q 13.19547729492188 1.4909999999999997 13.12647729492188 1.5712499999999996 Q 13.05747729492188 1.6514999999999997 13.02522729492188 1.7474999999999996 Q 12.992977294921879 1.8434999999999997 12.992977294921879 1.9289999999999998 M 13.139977294921879 1.9289999999999998 Q 13.139977294921879 1.8239999999999998 13.17222729492188 1.7362499999999996 Q 13.20447729492188 1.6484999999999999 13.26072729492188 1.5854999999999997 Q 13.31697729492188 1.5224999999999997 13.39347729492188 1.4872499999999997 Q 13.469977294921879 1.4519999999999997 13.559977294921879 1.4519999999999997 Q 13.648477294921879 1.4519999999999997 13.72722729492188 1.4872499999999997 Q 13.80597729492188 1.5224999999999997 13.86522729492188 1.5854999999999997 Q 13.924477294921878 1.6484999999999999 13.95897729492188 1.7362499999999996 Q 13.99347729492188 1.8239999999999998 13.99347729492188 1.9289999999999998 Q 13.99347729492188 2.034 13.95897729492188 2.1217499999999996 Q 13.924477294921878 2.2095 13.86522729492188 2.2725 Q 13.80597729492188 2.3354999999999997 13.72722729492188 2.3707499999999997 Q 13.648477294921879 2.4059999999999997 13.559977294921879 2.4059999999999997 Q 13.469977294921879 2.4059999999999997 13.39347729492188 2.3707499999999997 Q 13.31697729492188 2.3354999999999997 13.26072729492188 2.2725 Q 13.20447729492188 2.2095 13.17222729492188 2.1217499999999996 Q 13.139977294921879 2.034 13.139977294921879 1.9289999999999998 M 14.41046264648438 1.4039999999999997 L 14.41046264648438 2.4539999999999997 L 14.54696264648438 2.4539999999999997 L 14.54696264648438 1.9904999999999997 L 14.61296264648438 1.9904999999999997 Q 14.65496264648438 1.9904999999999997 14.68271264648438 1.9979999999999998 Q 14.71046264648438 2.0054999999999996 14.73296264648438 2.0235 Q 14.75546264648438 2.0414999999999996 14.77496264648438 2.07 Q 14.79446264648438 2.0984999999999996 14.82146264648438 2.1405 L 14.93996264648438 2.316 Q 14.96246264648438 2.3505 14.98421264648438 2.3789999999999996 Q 15.00596264648438 2.4074999999999998 15.03146264648438 2.4277499999999996 Q 15.05696264648438 2.448 15.08921264648438 2.4599999999999995 Q 15.12146264648438 2.4719999999999995 15.16646264648438 2.4719999999999995 Q 15.19946264648438 2.4719999999999995 15.22046264648438 2.469 Q 15.24146264648438 2.4659999999999997 15.26246264648438 2.4539999999999997 L 15.26246264648438 2.3985 Q 15.25496264648438 2.4 15.24746264648438 2.40075 Q 15.23996264648438 2.4014999999999995 15.23246264648438 2.4014999999999995 Q 15.20096264648438 2.4014999999999995 15.17696264648438 2.3924999999999996 Q 15.15296264648438 2.3834999999999997 15.13196264648438 2.3662499999999995 Q 15.11096264648438 2.3489999999999998 15.09146264648438 2.3242499999999997 Q 15.07196264648438 2.2994999999999997 15.050962646484379 2.268 Q 14.98796264648438 2.1765 14.95346264648438 2.1217499999999996 Q 14.91896264648438 2.0669999999999997 14.89871264648438 2.037 Q 14.87846264648438 2.0069999999999997 14.86571264648438 1.9934999999999996 Q 14.85296264648438 1.9799999999999998 14.83496264648438 1.9709999999999996 L 14.81996264648438 1.9634999999999998 L 14.81996264648438 1.9574999999999998 Q 14.89196264648438 1.9529999999999998 14.94371264648438 1.9259999999999997 Q 14.99546264648438 1.8989999999999996 15.02846264648438 1.8584999999999998 Q 15.06146264648438 1.8179999999999996 15.07646264648438 1.7707499999999996 Q 15.09146264648438 1.7234999999999996 15.09146264648438 1.6784999999999997 Q 15.09146264648438 1.6379999999999997 15.07571264648438 1.5899999999999999 Q 15.05996264648438 1.5419999999999998 15.02171264648438 1.5007499999999996 Q 14.98346264648438 1.4594999999999998 14.91746264648438 1.4317499999999996 Q 14.85146264648438 1.4039999999999997 14.75096264648438 1.4039999999999997 L 14.41046264648438 1.4039999999999997 M 14.54696264648438 1.4699999999999998 L 14.69846264648438 1.4699999999999998 Q 14.75546264648438 1.4699999999999998 14.80121264648438 1.4864999999999997 Q 14.84696264648438 1.5029999999999997 14.87996264648438 1.5322499999999997 Q 14.91296264648438 1.5614999999999997 14.93021264648438 1.6019999999999999 Q 14.94746264648438 1.6424999999999996 14.94746264648438 1.6904999999999997 Q 14.94746264648438 1.7309999999999999 14.93171264648438 1.7722499999999997 Q 14.91596264648438 1.8135 14.88446264648438 1.8472499999999998 Q 14.85296264648438 1.8809999999999998 14.80721264648438 1.9019999999999997 Q 14.76146264648438 1.9229999999999996 14.70146264648438 1.9229999999999996 L 14.54696264648438 1.9229999999999996 L 14.54696264648438 1.4699999999999998 M 15.247463378906255 1.4039999999999997 L 15.610463378906255 2.0564999999999998 L 15.610463378906255 2.4539999999999997 L 15.746963378906255 2.4539999999999997 L 15.746963378906255 2.0429999999999997 L 16.115963378906255 1.4039999999999997 L 16.034963378906255 1.4039999999999997 L 15.713963378906255 1.9574999999999998 L 15.707963378906255 1.9574999999999998 L 15.401963378906256 1.4039999999999997 L 15.247463378906255 1.4039999999999997" fill="#102036" fill-rule="nonzero"></path></g><g><path d=" M 7.793954223632816 2.8204124999999998 L 7.6259542236328155 3.1406624999999995 L 7.6259542236328155 3.3446624999999996 L 7.573454223632815 3.3446624999999996 L 7.573454223632815 3.1406624999999995 L 7.403954223632815 2.8204124999999998 L 7.4632042236328155 2.8204124999999998 L 7.599704223632815 3.0926624999999994 L 7.735454223632815 2.8204124999999998 L 7.793954223632816 2.8204124999999998 M 7.981473632812503 3.3157874999999994 Q 7.9222236328125035 3.2816624999999995 7.888098632812503 3.2205375 Q 7.853973632812503 3.1594124999999997 7.853973632812503 3.0821624999999995 Q 7.853973632812503 3.0049124999999997 7.888098632812503 2.9437874999999996 Q 7.9222236328125035 2.8826624999999995 7.981473632812503 2.8485374999999995 Q 8.040723632812503 2.8144124999999995 8.113473632812504 2.8144124999999995 Q 8.186973632812503 2.8144124999999995 8.246223632812503 2.8485374999999995 Q 8.305473632812504 2.8826624999999995 8.339223632812503 2.9437874999999996 Q 8.372973632812503 3.0049124999999997 8.372973632812503 3.0821624999999995 Q 8.372973632812503 3.1594124999999997 8.339223632812503 3.2205375 Q 8.305473632812504 3.2816624999999995 8.246223632812503 3.3157874999999994 Q 8.186973632812503 3.3499125 8.113473632812504 3.3499125 Q 8.040723632812503 3.3499125 7.981473632812503 3.3157874999999994 M 8.218473632812502 3.2771624999999998 Q 8.264973632812502 3.2501624999999996 8.291973632812503 3.1995374999999995 Q 8.318973632812503 3.1489125 8.318973632812503 3.0821624999999995 Q 8.318973632812503 3.0154124999999996 8.291973632812503 2.9651624999999995 Q 8.264973632812502 2.9149125 8.218473632812502 2.8879124999999997 Q 8.171973632812502 2.8609124999999995 8.113473632812504 2.8609124999999995 Q 8.054973632812503 2.8609124999999995 8.008473632812503 2.8879124999999997 Q 7.961973632812503 2.9149125 7.934973632812503 2.9651624999999995 Q 7.907973632812503 3.0154124999999996 7.907973632812503 3.0821624999999995 Q 7.907973632812503 3.1489125 7.934973632812503 3.1995374999999995 Q 7.961973632812503 3.2501624999999996 8.008473632812503 3.2771624999999998 Q 8.054973632812503 3.3041624999999994 8.113473632812504 3.3041624999999994 Q 8.171973632812502 3.3041624999999994 8.218473632812502 3.2771624999999998 M 8.526742309570317 2.8204124999999998 L 8.526742309570317 3.1504125 Q 8.526742309570317 3.2284124999999997 8.563867309570316 3.2659124999999998 Q 8.600992309570316 3.3034125 8.665492309570316 3.3034125 Q 8.729992309570315 3.3034125 8.766367309570317 3.2662875 Q 8.802742309570316 3.2291624999999997 8.802742309570316 3.1504125 L 8.802742309570316 2.8204124999999998 L 8.855242309570317 2.8204124999999998 L 8.855242309570317 3.1496625 Q 8.855242309570317 3.2494124999999996 8.802367309570316 3.2996624999999997 Q 8.749492309570316 3.3499125 8.664742309570316 3.3499125 Q 8.579992309570317 3.3499125 8.527117309570317 3.2996624999999997 Q 8.474242309570316 3.2494124999999996 8.474242309570316 3.1496625 L 8.474242309570316 2.8204124999999998 L 8.526742309570317 2.8204124999999998 M 9.497240478515629 2.8519124999999996 Q 9.55949047851563 2.8834124999999995 9.592490478515629 2.9426624999999995 Q 9.62549047851563 3.0019124999999995 9.62549047851563 3.0836624999999995 Q 9.62549047851563 3.1646624999999995 9.592490478515629 3.2235374999999995 Q 9.55949047851563 3.2824124999999995 9.497240478515629 3.3135375 Q 9.43499047851563 3.3446624999999996 9.347990478515628 3.3446624999999996 L 9.19274047851563 3.3446624999999996 L 9.19274047851563 2.8204124999999998 L 9.347990478515628 2.8204124999999998 Q 9.43499047851563 2.8204124999999998 9.497240478515629 2.8519124999999996 M 9.51486547851563 3.2437875 Q 9.57224047851563 3.1864124999999994 9.57224047851563 3.0836624999999995 Q 9.57224047851563 2.9801624999999996 9.51486547851563 2.9220374999999996 Q 9.457490478515629 2.8639124999999996 9.347990478515628 2.8639124999999996 L 9.24524047851563 2.8639124999999996 L 9.24524047851563 3.3011624999999998 L 9.347990478515628 3.3011624999999998 Q 9.457490478515629 3.3011624999999998 9.51486547851563 3.2437875 M 10.008735717773442 3.3446624999999996 L 9.878985717773443 3.1256625 L 9.782235717773442 3.1256625 L 9.782235717773442 3.3446624999999996 L 9.729735717773442 3.3446624999999996 L 9.729735717773442 2.8204124999999998 L 9.887235717773441 2.8204124999999998 Q 9.974985717773443 2.8204124999999998 10.020360717773443 2.8624124999999996 Q 10.065735717773443 2.9044124999999994 10.065735717773443 2.9726624999999998 Q 10.065735717773443 3.0296624999999997 10.033110717773441 3.0697874999999994 Q 10.000485717773442 3.1099124999999996 9.936735717773441 3.1219124999999996 L 10.071735717773441 3.3446624999999996 L 10.008735717773442 3.3446624999999996 M 9.782235717773442 3.0829124999999995 L 9.887985717773441 3.0829124999999995 Q 9.949485717773442 3.0829124999999995 9.980610717773441 3.0529124999999997 Q 10.011735717773442 3.0229124999999994 10.011735717773442 2.9726624999999998 Q 10.011735717773442 2.9209124999999996 9.981735717773441 2.8927875 Q 9.951735717773442 2.8646624999999997 9.887235717773441 2.8646624999999997 L 9.782235717773442 2.8646624999999997 L 9.782235717773442 3.0829124999999995 M 10.22996704101563 2.8631624999999996 L 10.22996704101563 3.0589124999999995 L 10.428717041015629 3.0589124999999995 L 10.428717041015629 3.1024125 L 10.22996704101563 3.1024125 L 10.22996704101563 3.3011624999999998 L 10.45121704101563 3.3011624999999998 L 10.45121704101563 3.3446624999999996 L 10.17746704101563 3.3446624999999996 L 10.17746704101563 2.8196624999999997 L 10.45121704101563 2.8196624999999997 L 10.45121704101563 2.8631624999999996 L 10.22996704101563 2.8631624999999996 M 10.865960083007817 3.2201625 L 10.627460083007817 3.2201625 L 10.581710083007817 3.3446624999999996 L 10.526210083007816 3.3446624999999996 L 10.717460083007817 2.8271624999999996 L 10.776710083007817 2.8271624999999996 L 10.967210083007817 3.3446624999999996 L 10.911710083007817 3.3446624999999996 L 10.865960083007817 3.2201625 M 10.850210083007818 3.1766624999999995 L 10.746710083007818 2.8931625 L 10.643210083007817 3.1766624999999995 L 10.850210083007818 3.1766624999999995 M 11.570943237304693 2.8271624999999996 L 11.570943237304693 3.3446624999999996 L 11.518443237304693 3.3446624999999996 L 11.518443237304693 2.9314124999999995 L 11.333943237304693 3.3446624999999996 L 11.295693237304693 3.3446624999999996 L 11.111193237304693 2.9329124999999996 L 11.111193237304693 3.3446624999999996 L 11.058693237304693 3.3446624999999996 L 11.058693237304693 2.8271624999999996 L 11.114193237304693 2.8271624999999996 L 11.314443237304692 3.2756624999999997 L 11.514693237304693 2.8271624999999996 L 11.570943237304693 2.8271624999999996 M 11.963168334960944 2.8204124999999998 L 11.963168334960944 3.3446624999999996 L 11.910668334960944 3.3446624999999996 L 11.910668334960944 2.8204124999999998 L 11.963168334960944 2.8204124999999998 M 12.396671264648443 2.8204124999999998 L 12.396671264648443 2.8639124999999996 L 12.251171264648443 2.8639124999999996 L 12.251171264648443 3.3446624999999996 L 12.198671264648443 3.3446624999999996 L 12.198671264648443 2.8639124999999996 L 12.052421264648444 2.8639124999999996 L 12.052421264648444 2.8204124999999998 L 12.396671264648443 2.8204124999999998 M 12.535435913085944 3.2576624999999995 L 12.457435913085943 3.4541625 L 12.421435913085944 3.4541625 L 12.476935913085944 3.2576624999999995 L 12.535435913085944 3.2576624999999995 M 13.473656250000007 2.8204124999999998 L 13.325156250000006 3.3446624999999996 L 13.266656250000008 3.3446624999999996 L 13.134656250000006 2.8976624999999996 L 12.999656250000006 3.3446624999999996 L 12.942656250000006 3.3454124999999997 L 12.797156250000008 2.8204124999999998 L 12.853406250000006 2.8204124999999998 L 12.973406250000007 3.2801624999999994 L 13.107656250000007 2.8204124999999998 L 13.166156250000007 2.8204124999999998 L 13.296656250000007 3.2801624999999994 L 13.417406250000006 2.8204124999999998 L 13.473656250000007 2.8204124999999998 M 13.61391906738282 2.8631624999999996 L 13.61391906738282 3.0589124999999995 L 13.812669067382819 3.0589124999999995 L 13.812669067382819 3.1024125 L 13.61391906738282 3.1024125 L 13.61391906738282 3.3011624999999998 L 13.83516906738282 3.3011624999999998 L 13.83516906738282 3.3446624999999996 L 13.56141906738282 3.3446624999999996 L 13.56141906738282 2.8196624999999997 L 13.83516906738282 2.8196624999999997 L 13.83516906738282 2.8631624999999996 L 13.61391906738282 2.8631624999999996 M 14.463652221679695 2.8519124999999996 Q 14.525902221679695 2.8834124999999995 14.558902221679695 2.9426624999999995 Q 14.591902221679696 3.0019124999999995 14.591902221679696 3.0836624999999995 Q 14.591902221679696 3.1646624999999995 14.558902221679695 3.2235374999999995 Q 14.525902221679695 3.2824124999999995 14.463652221679695 3.3135375 Q 14.401402221679696 3.3446624999999996 14.314402221679694 3.3446624999999996 L 14.159152221679696 3.3446624999999996 L 14.159152221679696 2.8204124999999998 L 14.314402221679694 2.8204124999999998 Q 14.401402221679696 2.8204124999999998 14.463652221679695 2.8519124999999996 M 14.481277221679695 3.2437875 Q 14.538652221679696 3.1864124999999994 14.538652221679696 3.0836624999999995 Q 14.538652221679696 2.9801624999999996 14.481277221679695 2.9220374999999996 Q 14.423902221679695 2.8639124999999996 14.314402221679694 2.8639124999999996 L 14.211652221679696 2.8639124999999996 L 14.211652221679696 3.3011624999999998 L 14.314402221679694 3.3011624999999998 Q 14.423902221679695 3.3011624999999998 14.481277221679695 3.2437875 M 14.799647460937509 3.3157874999999994 Q 14.740397460937508 3.2816624999999995 14.706272460937509 3.2205375 Q 14.672147460937508 3.1594124999999997 14.672147460937508 3.0821624999999995 Q 14.672147460937508 3.0049124999999997 14.706272460937509 2.9437874999999996 Q 14.740397460937508 2.8826624999999995 14.799647460937509 2.8485374999999995 Q 14.858897460937508 2.8144124999999995 14.931647460937508 2.8144124999999995 Q 15.005147460937508 2.8144124999999995 15.064397460937508 2.8485374999999995 Q 15.123647460937509 2.8826624999999995 15.157397460937508 2.9437874999999996 Q 15.191147460937508 3.0049124999999997 15.191147460937508 3.0821624999999995 Q 15.191147460937508 3.1594124999999997 15.157397460937508 3.2205375 Q 15.123647460937509 3.2816624999999995 15.064397460937508 3.3157874999999994 Q 15.005147460937508 3.3499125 14.931647460937508 3.3499125 Q 14.858897460937508 3.3499125 14.799647460937509 3.3157874999999994 M 15.036647460937507 3.2771624999999998 Q 15.083147460937507 3.2501624999999996 15.110147460937508 3.1995374999999995 Q 15.137147460937507 3.1489125 15.137147460937507 3.0821624999999995 Q 15.137147460937507 3.0154124999999996 15.110147460937508 2.9651624999999995 Q 15.083147460937507 2.9149125 15.036647460937507 2.8879124999999997 Q 14.990147460937507 2.8609124999999995 14.931647460937508 2.8609124999999995 Q 14.873147460937508 2.8609124999999995 14.826647460937508 2.8879124999999997 Q 14.780147460937508 2.9149125 14.753147460937509 2.9651624999999995 Q 14.726147460937508 3.0154124999999996 14.726147460937508 3.0821624999999995 Q 14.726147460937508 3.1489125 14.753147460937509 3.1995374999999995 Q 14.780147460937508 3.2501624999999996 14.826647460937508 3.2771624999999998 Q 14.873147460937508 3.3041624999999994 14.931647460937508 3.3041624999999994 Q 14.990147460937507 3.3041624999999994 15.036647460937507 3.2771624999999998 M 15.56015625000001 2.8204124999999998 L 15.56015625000001 3.3446624999999996 L 15.507656250000009 3.3446624999999996 L 15.507656250000009 2.8204124999999998 L 15.56015625000001 2.8204124999999998 M 15.993659179687508 2.8204124999999998 L 15.993659179687508 2.8639124999999996 L 15.848159179687508 2.8639124999999996 L 15.848159179687508 3.3446624999999996 L 15.795659179687508 3.3446624999999996 L 15.795659179687508 2.8639124999999996 L 15.64940917968751 2.8639124999999996 L 15.64940917968751 2.8204124999999998 L 15.993659179687508 2.8204124999999998 M 16.06604882812501 3.3371625 Q 16.05517382812501 3.3259125 16.05517382812501 3.3094124999999996 Q 16.05517382812501 3.2929124999999995 16.06604882812501 3.2820374999999995 Q 16.076923828125008 3.2711624999999995 16.093423828125008 3.2711624999999995 Q 16.10917382812501 3.2711624999999995 16.120048828125007 3.2820374999999995 Q 16.13092382812501 3.2929124999999995 16.13092382812501 3.3094124999999996 Q 16.13092382812501 3.3259125 16.120048828125007 3.3371625 Q 16.10917382812501 3.3484125 16.093423828125008 3.3484125 Q 16.076923828125008 3.3484125 16.06604882812501 3.3371625" fill="#3682ae" fill-rule="nonzero"></path></g><g clip-path="url(&quot;#SvgjsClipPath1001&quot;)"><g clip-path="url(&quot;#SvgjsClipPath1000ca25344b-a4ab-4510-b41d-5a710c9a0a3b&quot;)"><path d=" M 19.41915962981607 1.8514275454759073 C 19.362811305559195 1.790510438171177 19.301894198254466 1.7321823079268972 19.236408307901883 1.676443154743069 C 19.225276662891552 1.7344545050364986 19.21093916649866 1.7918044906080497 19.19346174725204 1.8482293973424062 C 19.182039789632405 1.8856934183348182 19.169247197098414 1.922700561022442 19.155083969650068 1.9597077037100654 C 19.245274690087133 1.9291394467576877 19.333471113484286 1.8929758613854981 19.419159629816058 1.851427545475909 Z" fill="#a5b2ba" transform="matrix(1,0,0,1,0,0)" fill-rule="evenodd"></path></g><g clip-path="url(&quot;#SvgjsClipPath1000ca25344b-a4ab-4510-b41d-5a710c9a0a3b&quot;)"><path d=" M 19.1505151866022 1.1231635276478555 C 18.982413815695583 1.1510505129170627 18.823220274152366 1.0383308861905594 18.793693230564738 0.8705098251014863 C 18.633219121373763 0.8967408612823901 18.475844984832662 0.9392992367283319 18.324022333245267 0.9975219938318498 C 18.452236707443188 1.0513520776185645 18.577315137711516 1.1123659460421396 18.698662543169345 1.1802733157460377 C 18.863552554801945 1.2725020791350463 19.02090306314657 1.3776061080098982 19.169247197098393 1.4946055894384473 C 19.178746713594144 1.3704977508931206 19.172452393869847 1.2456859963600968 19.1505151866022 1.1231635276478549 Z" fill="#a5b2ba" transform="matrix(1,0,0,1,0,0)" fill-rule="evenodd"></path></g><g clip-path="url(&quot;#SvgjsClipPath1000ca25344b-a4ab-4510-b41d-5a710c9a0a3b&quot;)"><path d=" M 17.65378186012498 1.2684508285696374 C 17.786205310315758 1.1656798045863537 17.92890104499031 1.0768777379433803 18.07959244018505 1.00346141179406 C 17.86273934856336 0.9249401918787841 17.638483619436307 0.8686083773267325 17.41026572367431 0.8353301956330038 C 17.408813049128366 0.9506707899066988 17.41583742827376 1.065962230227858 17.431282125694448 1.180273315746008 L 17.436764665351873 1.180273315746008 C 17.51782855823751 1.1802723133304376 17.595692022053036 1.2119094681017972 17.65378186012498 1.2684508285696374 Z" fill="#102036" transform="matrix(1,0,0,1,0,0)" fill-rule="evenodd"></path></g><g clip-path="url(&quot;#SvgjsClipPath1000ca25344b-a4ab-4510-b41d-5a710c9a0a3b&quot;)"><path d=" M 17.594844558807647 1.7563968580805276 C 17.66019177590272 1.9023865133232656 17.74452937120428 2.0391086623549457 17.84567074813486 2.1630185493396032 C 18.16816614210722 2.15927928786748 18.489518076012512 2.123930575137898 18.805115188184377 2.057479660934159 C 18.885068891521847 2.0396614070475243 18.96410883824973 2.0195587616369632 19.040407515148893 1.9967148463976894 C 19.065898481504796 1.9394763009297067 19.087869547718295 1.8807342141783612 19.106197991038005 1.8208166990552805 C 19.127648718404593 1.7504815378176615 19.14413684227224 1.6787276654306815 19.155540847954843 1.606083895806105 C 18.99839324208142 1.4773451207029364 18.830222697866134 1.3626833860106962 18.652974712690813 1.2634251672169996 C 18.50741598817463 1.1818262663599106 18.356621918226676 1.1099396196539564 18.201578947562762 1.0482354856630387 C 18.026488476343417 1.1258354995605289 17.861423484456232 1.224322232638202 17.709977891613608 1.341551357335312 C 17.78916301624152 1.4883215660344395 17.73834461352163 1.6714291440886302 17.594844558807647 1.7563968580805283 Z" fill="#3682ae" transform="matrix(1,0,0,1,0,0)" fill-rule="evenodd"></path></g><g clip-path="url(&quot;#SvgjsClipPath1000ca25344b-a4ab-4510-b41d-5a710c9a0a3b&quot;)"><path d=" M 17.294675512563597 1.7655344241762376 C 17.211761130339045 1.8775622358127817 17.14100349152724 1.9980952698926415 17.083597735752708 2.1250976500424086 C 17.2974002882322 2.150473371134785 17.51249352989193 2.1634399849937065 17.72779614550025 2.1639323059491744 C 17.640976244560658 2.0484217696842624 17.56741399477515 1.9235191997359589 17.50849455920321 1.7915764875490106 C 17.4363831467143 1.808428958009873 17.360633712730827 1.7992030654093212 17.294675512563604 1.7655344241762376 Z" fill="#a5b2ba" transform="matrix(1,0,0,1,0,0)" fill-rule="evenodd"></path></g><g clip-path="url(&quot;#SvgjsClipPath1000ca25344b-a4ab-4510-b41d-5a710c9a0a3b&quot;)"><path d=" M 18.73338529433307 2.469127013545874 C 18.83197914675766 2.3599441249205837 18.91696965250105 2.2392085147760934 18.986495875184207 2.1095637876797033 C 18.933497991829103 2.1237270151280523 18.880043230169207 2.136519607662045 18.825674711899737 2.1488553218912543 C 18.529529582071092 2.211497270786084 18.228235080144987 2.2466737862393877 17.92562445147233 2.2539373319919127 C 18.02978853086071 2.3641072967786636 18.147721420021462 2.4603884445700643 18.27650698954757 2.5404000290924076 C 18.28838686632336 2.52221869522039 18.302004879608678 2.505234431460039 18.317169158673497 2.489686537261221 C 18.42996758329771 2.376797470481023 18.610010533064905 2.3679040207120607 18.73338529433307 2.469127013545874 Z" fill="#a5b2ba" transform="matrix(1,0,0,1,0,0)" fill-rule="evenodd"></path></g><g clip-path="url(&quot;#SvgjsClipPath1000ca25344b-a4ab-4510-b41d-5a710c9a0a3b&quot;)"><path d=" M 19.86964163833455 0.8595447457866348 C 19.59169692620548 0.3282808633210012 19.061691692517563 -0.024251876641771364 18.464283972814417 -0.07522826580445285 C 18.561434680275113 0.0008524294002592719 18.65304219626612 0.08375723137211244 18.738410955685723 0.1728566536940595 C 18.84061488036002 0.2785908653362264 18.931564397097443 0.39465102305840305 19.009796668728278 0.519170408721455 C 19.093786860284133 0.4944050736045811 19.18433162199498 0.5062893507648297 19.25908601045692 0.5518903979756136 C 19.33384039891888 0.5974914451863974 19.385841073931225 0.6725615438619446 19.402255132539004 0.7585746404290442 C 19.495455636413954 0.7676470019623588 19.587949304769193 0.7829099835391332 19.679123385239006 0.8042624709075923 C 19.74491386112811 0.8202532115750837 19.80750618888372 0.8385283437665029 19.86964163833455 0.8595447457866348 Z" fill="#102036" transform="matrix(1,0,0,1,0,0)" fill-rule="evenodd"></path></g><g clip-path="url(&quot;#SvgjsClipPath1000ca25344b-a4ab-4510-b41d-5a710c9a0a3b&quot;)"><path d=" M 20.02360962704725 1.2748471248366342 C 20.0005314241825 1.1738835441657156 19.968263123030916 1.0752434766644106 19.927208304737512 0.9801606182500016 C 19.840215759826158 0.9459788071474473 19.750898362359738 0.9180384930682077 19.659934496437998 0.8965518884742579 C 19.577001994648967 0.8768798641776369 19.49292643099298 0.8623840773403982 19.408194550501204 0.8531484495196378 C 19.395622409360033 0.9563512178970461 19.332620778267664 1.0465736624233328 19.24006333434015 1.0939233161415851 C 19.269777812085213 1.2500899452175727 19.27501841986632 1.4099284825409741 19.25559719670286 1.567706118204125 C 19.343442352002192 1.6423064211245968 19.426743178853087 1.7220982387858064 19.50505275111572 1.8066534716069278 C 19.732326938273495 1.692108684368921 19.91483412903136 1.504938314287737 20.02360962704725 1.2748471248366342 Z" fill="#3682ae" transform="matrix(1,0,0,1,0,0)" fill-rule="evenodd"></path></g><g clip-path="url(&quot;#SvgjsClipPath1000ca25344b-a4ab-4510-b41d-5a710c9a0a3b&quot;)"><path d=" M 19.902993754583893 2.4174997651051147 C 20.04729368416766 2.108165372079564 20.099020544233923 1.7636898714542124 20.05193608194395 1.4256169654158424 C 19.93294479430775 1.6160685865191409 19.76612709891424 1.7720171402864477 19.568101957176136 1.8779264871534647 C 19.708796340547146 2.0380320195985204 19.821962425747326 2.220363733952408 19.902993754583893 2.4174997651051164 Z" fill="#102036" transform="matrix(1,0,0,1,0,0)" fill-rule="evenodd"></path></g><g clip-path="url(&quot;#SvgjsClipPath1000ca25344b-a4ab-4510-b41d-5a710c9a0a3b&quot;)"><path d=" M 19.60876412630204 2.8565598160039594 C 19.69973222914105 2.757393395979663 19.778988734020633 2.648089937606069 19.844970209876127 2.5308055846919144 C 19.76604300409546 2.306473564614299 19.6435342714416 2.099963280166082 19.4844932274004 1.923157439327227 C 19.36341826753194 1.9834518601007962 19.237672786170645 2.033872283975926 19.10848238256196 2.0739272799064343 C 19.02823885523607 2.243514693041889 18.92305701913723 2.400132448989937 18.796434500393467 2.5385725158732644 C 18.829616596359088 2.5893768544325972 18.847242341186796 2.648764499167389 18.84714799222465 2.7094450018630347 C 18.847199092230014 2.7320091338529453 18.84490233549615 2.754517349844778 18.840294817652886 2.7766061126664816 C 18.95542879875798 2.806153208179503 19.072539802402755 2.8273767147070448 19.190720477423344 2.840112197031683 C 19.329554019146176 2.8547959915539325 19.469206080550137 2.860290498887859 19.608764126302052 2.8565598160039594 Z" fill="#3682ae" transform="matrix(1,0,0,1,0,0)" fill-rule="evenodd"></path></g><g clip-path="url(&quot;#SvgjsClipPath1000ca25344b-a4ab-4510-b41d-5a710c9a0a3b&quot;)"><path d=" M 17.447272866361953 3.19693415306914 C 18.11604720816275 3.5772305116462064 18.9545463243598 3.477581179966503 19.515560952125796 2.9511336250945535 C 19.40368402023648 2.9510294957674965 19.291893076361664 2.9449290349830584 19.18066915471804 2.932858492903133 C 19.054111058490825 2.9193428619053865 18.928733069917122 2.8964357994375955 18.80557206648917 2.864326747185312 C 18.792188387895173 2.8878615580564375 18.775750505538163 2.90952269275118 18.75668608787712 2.928746588160064 L 18.75668608787712 2.928746588160064 C 18.635393921555465 3.0498711230429745 18.438918203299927 3.0498711230429745 18.31762603697827 2.928746588160064 L 18.31762603697827 2.928746588160064 C 18.16743523382087 3.0162876903927094 18.00668609570219 3.084302846253812 17.839274451867865 3.131143677180032 C 17.711096398430122 3.165946519133498 17.579789830125897 3.1879839851425995 17.447272866361953 3.1969341530691393 Z" fill="#102036" transform="matrix(1,0,0,1,0,0)" fill-rule="evenodd"></path></g><g clip-path="url(&quot;#SvgjsClipPath1000ca25344b-a4ab-4510-b41d-5a710c9a0a3b&quot;)"><path d=" M 16.922319694163434 2.7386852133693056 C 16.969459232881928 2.7997379024645435 17.02026642087278 2.8578686490846907 17.074460169656994 2.9127558474925745 C 17.14633015114178 2.984233976663968 17.224125232193856 3.049496254874649 17.30701122679278 3.1078428836359695 C 17.477959071130314 3.1085242257784467 17.648173219012968 3.0854599780978695 17.812775510190313 3.0393111379181503 C 17.96933160657483 2.995608376938039 18.11976173397786 2.9323663233767663 18.260516248880087 2.8510772763465324 C 18.23796111228025 2.8072753558631334 18.226212168290605 2.7587130540392693 18.226250376021177 2.7094450018630347 C 18.22630127934583 2.681340208252462 18.230143241972662 2.6533707203291197 18.237672333640802 2.6262931503920903 C 18.07787867398143 2.5285976041964933 17.933843694170665 2.4072076960779105 17.8104911186664 2.266273046221122 L 17.802267309180255 2.256678601820626 C 17.549548226770728 2.2591918838973104 17.296942935568506 2.2448445138834074 17.046133714760305 2.2137320411707915 L 17.046133714760295 2.2178439459138604 C 16.98078509216873 2.3848372711800963 16.939110186280747 2.5601486834026153 16.922319694163434 2.7386852133693056 Z" fill="#3682ae" transform="matrix(1,0,0,1,0,0)" fill-rule="evenodd"></path></g><g clip-path="url(&quot;#SvgjsClipPath1000ca25344b-a4ab-4510-b41d-5a710c9a0a3b&quot;)"><path d=" M 16.62169376961458 2.1305801896998346 C 16.668705301449346 2.305531874039593 16.742858707679037 2.472030166613532 16.841452234216394 2.624008758868154 C 16.862312624919763 2.479081380984659 16.899084952385984 2.3368950481153146 16.95110302736491 2.2000256920272268 C 16.839899927527238 2.184102931301525 16.729860726840382 2.160904653209429 16.62169376961458 2.1305801896998346 Z" fill="#102036" transform="matrix(1,0,0,1,0,0)" fill-rule="evenodd"></path></g><g clip-path="url(&quot;#SvgjsClipPath1000ca25344b-a4ab-4510-b41d-5a710c9a0a3b&quot;)"><path d=" M 16.78434244611821 0.8156844285272289 C 16.578805381720752 1.1830945952484417 16.512162549870496 1.6121382280361547 16.59656546285138 2.024584422989604 C 16.72404289035431 2.0647815750224865 16.85473168452481 2.0939763816734382 16.98719641344296 2.111848179203629 C 17.049117162092433 1.9698694531581469 17.12681849888593 1.8353097417090438 17.218833713969197 1.7107090276019825 L 17.218833713969197 1.71070902760198 L 17.218833713969197 1.71070902760198 C 17.097709179086287 1.5894168612803299 17.097709179086287 1.3929411430247862 17.218833713969197 1.2716489767031356 C 17.25316485561486 1.237483258699222 17.29490686041549 1.2116876377550054 17.34082022134692 1.196264056413532 C 17.323932720999583 1.07289534191349 17.31660085565357 0.9484063782259615 17.318890062717212 0.8239082380133685 C 17.141447411669546 0.8030473098081677 16.962342843347727 0.8002918549109084 16.78434244611821 0.8156844285272286 Z" fill="#3682ae" transform="matrix(1,0,0,1,0,0)" fill-rule="evenodd"></path></g><g clip-path="url(&quot;#SvgjsClipPath1000ca25344b-a4ab-4510-b41d-5a710c9a0a3b&quot;)"><path d=" M 17.418032654855672 0.16463284420792285 C 17.293072617774317 0.23943105225071204 17.177697377550377 0.3291843973717276 17.074460169656987 0.431906652507426 C 16.988602596108205 0.5187309654109039 16.912041459196438 0.614279264276797 16.846021017264242 0.7169987146935641 C 17.004909648105258 0.7073153287744504 17.16433628243208 0.7112895305889259 17.3225450891555 0.728877550617988 C 17.3225450891555 0.6973529475877901 17.326656993898563 0.666742101167163 17.32939826372727 0.6375018896608925 C 17.343208371919857 0.47733228592728816 17.37289901452502 0.3189311771832843 17.418032654855672 0.16463284420792434 Z" fill="#102036" transform="matrix(1,0,0,1,0,0)" fill-rule="evenodd"></path></g><g clip-path="url(&quot;#SvgjsClipPath1000ca25344b-a4ab-4510-b41d-5a710c9a0a3b&quot;)"><path d=" M 18.30072153970122 -0.08162456207144975 C 18.03584040149873 -0.07922780910385345 17.774958171362343 -0.01674104739453708 17.53773477070948 0.10112675984274169 C 17.47671160341863 0.27724217031380827 17.437284210038506 0.4601116368861885 17.420317046379605 0.6457256991470308 C 17.417118898246102 0.6777071804820146 17.41483450672218 0.709688661816998 17.41300699350304 0.742127021456767 C 17.682277257442298 0.7807108598461244 17.946244413385187 0.8499984060053463 18.199751434343632 0.9486360152198032 C 18.389934217705388 0.8674207803656911 18.589427700415197 0.8100280399553331 18.79369323056477 0.7777635292300346 C 18.802580421603924 0.7101220542842671 18.833581606621806 0.6473165447402586 18.881870743388365 0.5991241120589119 C 18.89585425989958 0.5849178179414701 18.911151842289648 0.5720678487338197 18.92755857386692 0.5607463344569321 C 18.853892433980075 0.44596670319448994 18.768948512894 0.33883022614898173 18.673991114710972 0.24093152110709798 C 18.559760040500652 0.12215424720731083 18.4348065315046 0.014177285945130028 18.30072153970122 -0.08162456207144823 Z" fill="#a5b2ba" transform="matrix(1,0,0,1,0,0)" fill-rule="evenodd"></path></g></g></g><defs><clipPath id="SvgjsClipPath1001"><path d=" M 16.560928955078126 -0.08162456207144975 h 3.507911624142899 v 3.507911624142899 h -3.507911624142899 Z"></path></clipPath><clipPath id="SvgjsClipPath1000ca25344b-a4ab-4510-b41d-5a710c9a0a3b"><path d=" M 16.560928955078126 -0.08162456207144975 L 20.068840579221025 -0.08162456207144975 L 20.068840579221025 3.4262870620714496 L 16.560928955078126 3.4262870620714496 Z"></path></clipPath></defs></svg>